<svg width="13" height="13" viewBox="0 0 13 13" fill="none" xmlns="http://www.w3.org/2000/svg">
<path d="M9.746 6.448C10.466 6.676 11.03 7.06 11.438 7.6C11.846 8.128 12.05 8.782 12.05 9.562C12.05 10.666 11.618 11.518 10.754 12.118C9.902 12.706 8.654 13 7.01 13H0.494V0.399999H6.65C8.186 0.399999 9.362 0.693999 10.178 1.282C11.006 1.87 11.42 2.668 11.42 3.676C11.42 4.288 11.27 4.834 10.97 5.314C10.682 5.794 10.274 6.172 9.746 6.448ZM3.392 2.596V5.566H6.29C7.01 5.566 7.556 5.44 7.928 5.188C8.3 4.936 8.486 4.564 8.486 4.072C8.486 3.58 8.3 3.214 7.928 2.974C7.556 2.722 7.01 2.596 6.29 2.596H3.392ZM6.794 10.804C7.562 10.804 8.138 10.678 8.522 10.426C8.918 10.174 9.116 9.784 9.116 9.256C9.116 8.212 8.342 7.69 6.794 7.69H3.392V10.804H6.794Z" fill="#979797"/>
</svg>
