<svg width="20" height="20" viewBox="0 0 20 20" fill="none" xmlns="http://www.w3.org/2000/svg">
<path d="M18.5008 12.5726C18.225 12.5726 18.0016 12.7961 18.0016 13.0718V17.5039C18.0006 18.3307 17.3307 19.0007 16.5039 19.0015H2.49613C1.66928 19.0007 0.999425 18.3307 0.99845 17.5039V4.49588C0.999425 3.66932 1.66928 2.99933 2.49613 2.99835H6.9287C7.20444 2.99835 7.42792 2.77489 7.42792 2.49918C7.42792 2.22365 7.20444 2 6.9287 2H2.49613C1.11819 2.00156 0.00156008 3.11808 0 4.49588V17.5041C0.00156008 18.8819 1.11819 19.9984 2.49613 20H16.5039C17.8818 19.9984 18.9984 18.8819 19 17.5041V13.0718C19 12.7961 18.7765 12.5726 18.5008 12.5726Z" fill="black"/>
<path fill-rule="evenodd" clip-rule="evenodd" d="M15.4726 0.673951C16.3713 -0.22465 17.8283 -0.22465 18.727 0.673951L19.327 1.27395C20.2243 2.17315 20.2243 3.62881 19.327 4.52801L10.2042 13.6504C10.1417 13.713 10.0642 13.7581 9.97908 13.7817L5.64788 14.9815C5.4703 15.0306 5.28013 14.9805 5.1497 14.8502C5.01946 14.7198 4.96932 14.5297 5.01866 14.3521L6.21837 10.0213C6.24194 9.93619 6.28708 9.85869 6.3496 9.79618L15.4726 0.673951ZM14.9303 2.6625L7.46381 10.1285L9.87162 12.5363L17.3383 5.07028L14.9303 2.6625ZM6.98281 11.0936L8.90662 13.0175L6.24553 13.7547L6.98281 11.0936ZM18.0616 4.34725L18.6039 3.80497C19.1023 3.30544 19.1023 2.49672 18.6039 1.99699L18.0037 1.39699C17.5045 0.897852 16.6951 0.897852 16.1959 1.39699L15.6534 1.93926L18.0616 4.34725Z" fill="black"/>
</svg>
