<svg width="18" height="17" viewBox="0 0 18 17" fill="none" xmlns="http://www.w3.org/2000/svg">
<path fill-rule="evenodd" clip-rule="evenodd" d="M14.6455 1.06047L14.8348 0.369487C14.8777 0.212918 14.7827 0.0520207 14.6227 0.0100538C14.4625 -0.0318397 14.2981 0.0610083 14.2552 0.217577L14.0659 0.908563C14.015 1.09463 14.1583 1.27808 14.3559 1.27808C14.4883 1.27805 14.6096 1.19158 14.6455 1.06047ZM6.98622 11.6936C9.31203 10.5313 11.9224 9.82994 14.6796 9.72476C15.6247 9.68881 16.191 8.68263 15.718 7.88284L11.5557 0.829912C11.0825 0.0283959 9.90928 0.0074859 9.40579 0.788826C8.07675 2.84957 6.34615 4.61654 4.30058 6.00387C4.17252 6.0907 4.13427 6.25919 4.21216 6.39118L6.1732 9.71387C6.2554 9.85312 6.21719 10.0365 6.07727 10.1208C5.93259 10.2081 5.74411 10.1607 5.65981 10.0179L3.71283 6.71903C3.62995 6.57864 3.44646 6.53058 3.30298 6.61162L0.825174 8.01124C0.0369021 8.45622 -0.23423 9.44596 0.220657 10.2171L1.74057 12.7916C2.19449 13.5613 3.20458 13.829 3.99551 13.3829L6.98622 11.6936ZM14.0153 2.78842C14.8508 3.0846 15.3677 3.94991 15.2136 4.81266C15.1652 5.08416 14.7984 5.15015 14.6574 4.91152C14.3201 4.3402 13.9865 3.77489 13.6541 3.21153C13.5145 2.97488 13.7527 2.69531 14.0153 2.78842ZM8.28826 15.197L6.86457 12.7794C6.78184 12.6389 6.59812 12.5907 6.45453 12.6717C6.04653 12.902 5.84612 13.0152 5.59566 13.1567L5.59308 13.1582L4.62455 13.7053C4.48104 13.7863 4.43169 13.9659 4.51456 14.1063L5.94069 16.5224C6.12351 16.8318 6.45228 17 6.78709 17C7.0592 17 7.19051 16.9245 7.63488 16.6692C7.72085 16.6198 7.81855 16.5636 7.93125 16.5C8.39701 16.237 8.55714 15.6522 8.28826 15.197ZM17.514 2.18034C17.5968 2.32069 17.5476 2.50019 17.4042 2.58122C17.2361 2.67616 17.1024 2.75223 16.9954 2.81319L16.9953 2.81324C16.567 3.05708 16.5636 3.05901 16.4782 3.05904C16.1734 3.05904 16.0623 2.66138 16.3279 2.51134L17.1041 2.07292C17.2477 1.99185 17.4312 2.04002 17.514 2.18034ZM17.7776 5.35544C17.9376 5.39737 18.0326 5.5583 17.9897 5.71487C17.9538 5.84598 17.8325 5.93248 17.7001 5.93248C17.6944 5.93248 17.6897 5.93256 17.6851 5.93247C17.6459 5.93168 17.6069 5.91838 16.9159 5.73725C16.7558 5.69528 16.6608 5.53435 16.7037 5.37782C16.7466 5.22128 16.9111 5.12844 17.0711 5.17029L17.7776 5.35544Z" fill="black"/>
</svg>
