<svg width="21" height="19" viewBox="0 0 21 19" fill="none" xmlns="http://www.w3.org/2000/svg">
<path d="M13.0941 10C13.0941 11.6559 11.7501 13 10.0901 13C8.43005 13 7.08606 11.6559 7.08606 10C7.08606 8.34409 8.43005 7 10.0901 7C11.7501 7 13.0941 8.34409 13.0941 10Z" stroke="white" stroke-width="2"/>
<mask id="path-2-inside-1" fill="white">
<path fill-rule="evenodd" clip-rule="evenodd" d="M5.08308 2H15.0971V3H5.08308V2ZM3.08308 3V2V0H5.08308H15.0971H17.0971V2V3H18.1001H20.1001V5V17V19H18.1001H2.08008H0.0800781V17V5V3H2.08008H3.08308ZM17.0971 5H15.0971H5.08308H3.08308H2.08008V17H18.1001V5H17.0971Z"/>
</mask>
<path d="M15.0971 2H17.0971V0H15.0971V2ZM5.08308 2V0H3.08308V2H5.08308ZM15.0971 3V5H17.0971V3H15.0971ZM5.08308 3H3.08308V5H5.08308V3ZM3.08308 3V5H5.08308V3H3.08308ZM3.08308 0V-2H1.08308V0H3.08308ZM17.0971 0H19.0971V-2H17.0971V0ZM17.0971 3H15.0971V5H17.0971V3ZM20.1001 3H22.1001V1H20.1001V3ZM20.1001 19V21H22.1001V19H20.1001ZM0.0800781 19H-1.91992V21H0.0800781V19ZM0.0800781 3V1H-1.91992V3H0.0800781ZM2.08008 5V3H0.0800781V5H2.08008ZM2.08008 17H0.0800781V19H2.08008V17ZM18.1001 17V19H20.1001V17H18.1001ZM18.1001 5H20.1001V3H18.1001V5ZM15.0971 0H5.08308V4H15.0971V0ZM17.0971 3V2H13.0971V3H17.0971ZM15.0971 1H5.08308V5H15.0971V1ZM3.08308 2V3H7.08308V2H3.08308ZM1.08308 2V3H5.08308V2H1.08308ZM1.08308 0V2H5.08308V0H1.08308ZM5.08308 -2H3.08308V2H5.08308V-2ZM15.0971 -2H5.08308V2H15.0971V-2ZM17.0971 -2H15.0971V2H17.0971V-2ZM19.0971 2V0H15.0971V2H19.0971ZM19.0971 3V2H15.0971V3H19.0971ZM18.1001 1H17.0971V5H18.1001V1ZM20.1001 1H18.1001V5H20.1001V1ZM22.1001 5V3H18.1001V5H22.1001ZM22.1001 17V5H18.1001V17H22.1001ZM22.1001 19V17H18.1001V19H22.1001ZM18.1001 21H20.1001V17H18.1001V21ZM2.08008 21H18.1001V17H2.08008V21ZM0.0800781 21H2.08008V17H0.0800781V21ZM-1.91992 17V19H2.08008V17H-1.91992ZM-1.91992 5V17H2.08008V5H-1.91992ZM-1.91992 3V5H2.08008V3H-1.91992ZM2.08008 1H0.0800781V5H2.08008V1ZM3.08308 1H2.08008V5H3.08308V1ZM17.0971 3H15.0971V7H17.0971V3ZM15.0971 3H5.08308V7H15.0971V3ZM5.08308 3H3.08308V7H5.08308V3ZM3.08308 3H2.08008V7H3.08308V3ZM0.0800781 5V17H4.08008V5H0.0800781ZM2.08008 19H18.1001V15H2.08008V19ZM20.1001 17V5H16.1001V17H20.1001ZM18.1001 3H17.0971V7H18.1001V3Z" fill="white" mask="url(#path-2-inside-1)"/>
</svg>
