<svg xmlns="http://www.w3.org/2000/svg" viewBox="0 0 130.14 111.5"><defs><style>.cls-1{fill:#ffffff;}.cls-2{fill:none;}</style></defs><title>Asset 1</title><g id="Layer_2" data-name="Layer 2"><g id="Layer_2-2" data-name="Layer 2"><path class="cls-1" d="M7.62,111.41v-5.82l-2.29,4.95H4.06l-2.29-4.95v5.82H0v-8.63H2.18l2.52,5.28,2.5-5.28H9.37v8.63Z"/><path class="cls-1" d="M18.92,107.8A3.52,3.52,0,0,1,15,111.5c-2.39,0-3.92-1.42-3.92-3.7v-5h1.95v5a1.86,1.86,0,0,0,2,2,1.83,1.83,0,0,0,1.92-2v-5h1.95Z"/><path class="cls-1" d="M27.09,103.63l-.75,1.62a6,6,0,0,0-2.69-.89c-.65,0-1.1.23-1.1.7,0,1.59,4.6.7,4.59,3.81,0,1.69-1.47,2.6-3.38,2.6A6.06,6.06,0,0,1,20,110.1l.78-1.59a5.11,5.11,0,0,0,3.06,1.3c.8,0,1.28-.3,1.28-.83,0-1.63-4.6-.68-4.6-3.74,0-1.57,1.34-2.55,3.34-2.55A6.17,6.17,0,0,1,27.09,103.63Z"/><path class="cls-1" d="M28.51,111.41v-8.63h1.95v8.63Z"/><path class="cls-1" d="M35.56,107.9l-1.25,1.38v2.13H32.37v-8.63h1.95v3.92l3.59-3.92h2.26l-3.24,3.6,3.47,5H38Z"/><path class="cls-1" d="M44.65,107.9l-1.25,1.38v2.13H41.46v-8.63H43.4v3.92L47,102.78h2.26L46,106.38l3.47,5H47.13Z"/><path class="cls-1" d="M54.51,102.78c1.9,0,3.08.83,3.08,2.16a1.89,1.89,0,0,1-1.49,1.9,2.12,2.12,0,0,1,1.8,2.18c0,1.48-1.25,2.39-3.26,2.39H50.54v-8.63Zm-2,3.48h1.92c.73,0,1.18-.36,1.18-1s-.46-.93-1.18-.93H52.49Zm0,3.56h1.92c.93,0,1.48-.38,1.48-1s-.56-1-1.48-1H52.49Z"/><path class="cls-1" d="M63.26,108.94h-2v2.47H59.32v-8.63h3.75c2.26,0,3.54,1.09,3.54,3A2.85,2.85,0,0,1,65,108.56l1.84,2.85H64.63Zm-.18-1.63c1.07,0,1.69-.49,1.69-1.48s-.62-1.44-1.69-1.44h-1.8v2.92Z"/><path class="cls-1" d="M72.32,111.41H70.37v-2.74l-3.19-5.9h2l2.21,3.87,2.16-3.87h2l-3.14,5.85Z"/><path class="cls-1" d="M83.63,107.06v3.32a6.39,6.39,0,0,1-3.5,1.12,4.4,4.4,0,1,1,.11-8.78A5.44,5.44,0,0,1,83.7,104l-1.1,1.39a3.61,3.61,0,0,0-2.37-1,2.69,2.69,0,1,0,0,5.39,3.93,3.93,0,0,0,1.69-.47v-2.27Z"/><path class="cls-1" d="M92.81,107.06v3.32a6.39,6.39,0,0,1-3.5,1.12,4.4,4.4,0,1,1,.11-8.78A5.44,5.44,0,0,1,92.89,104l-1.1,1.39a3.61,3.61,0,0,0-2.37-1,2.69,2.69,0,1,0,0,5.39,3.93,3.93,0,0,0,1.69-.47v-2.27Z"/><path class="cls-1" d="M96.46,104.39v1.87h4.17v1.62H96.46v1.91h4.76v1.62H94.51v-8.63h6.57v1.62Z"/><path class="cls-1" d="M106.68,108.94h-2v2.47h-1.95v-8.63h3.75c2.26,0,3.54,1.09,3.54,3a2.85,2.85,0,0,1-1.62,2.79l1.84,2.85h-2.21Zm-.18-1.63c1.07,0,1.69-.49,1.69-1.48s-.62-1.44-1.69-1.44h-1.8v2.92Z"/><path class="cls-1" d="M111.68,111.41v-8.63h1.95v8.63Z"/><path class="cls-1" d="M117.49,104.39v1.87h4.17v1.62h-4.17v1.91h4.76v1.62h-6.71v-8.63h6.57v1.62Z"/><path class="cls-1" d="M127.5,104.43v7h-1.95v-7h-2.63v-1.65h7.21v1.65Z"/><path class="cls-2" d="M48.38,74.34a2.1,2.1,0,0,1-2.1-2.1V47.32H38.51V90.07H49.66V74.34Z"/><path class="cls-2" d="M30,47.32V72.24a2.1,2.1,0,0,1-2.1,2.1H26.65V90.07H37.51V47.32Z"/><path class="cls-2" d="M24.36,74.34a2.1,2.1,0,0,1-2.1-2.1V47.32H14V72.24a2.1,2.1,0,0,1-2.1,2.1H10.64V90.07h15V74.34Z"/><path class="cls-2" d="M85.07,47.32V72.24a2.1,2.1,0,0,1-2.1,2.1H81.68V90.07H91.8V47.32Z"/><path class="cls-2" d="M102.66,74.34a2.1,2.1,0,0,1-2.1-2.1V47.32H92.8V90.07h11.15V74.34Z"/><path class="cls-2" d="M64.39,74.34a2.1,2.1,0,0,1-2.1-2.1V47.32H54V72.24a2.1,2.1,0,0,1-2.1,2.1H50.66V90.07h15V74.34Z"/><path class="cls-2" d="M124.34,72.24a2.1,2.1,0,0,1-2.1,2.1H121V90.07h3.62A3.07,3.07,0,0,0,127.64,87V47.32h-3.3Z"/><path class="cls-2" d="M79.4,74.34a2.1,2.1,0,0,1-2.1-2.1V47.32H70.06V72.24a2.1,2.1,0,0,1-2.1,2.1H66.67V90.07h14V74.34Z"/><path class="cls-2" d="M8.35,74.34a2.1,2.1,0,0,1-2.1-2.1V47.32H2.5V87a3.07,3.07,0,0,0,3.07,3.07H9.64V74.34Z"/><path class="cls-2" d="M118.67,74.34a2.1,2.1,0,0,1-2.1-2.1V47.32h-8.24V72.24a2.1,2.1,0,0,1-2.1,2.1h-1.29V90.07h15V74.34Z"/><path class="cls-1" d="M8.35,74.34h3.57a2.1,2.1,0,0,0,2.1-2.1V47.32H6.25V72.24A2.1,2.1,0,0,0,8.35,74.34Z"/><rect class="cls-1" x="9.64" y="74.34" width="1" height="15.73"/><path class="cls-1" d="M24.36,74.34h3.57a2.1,2.1,0,0,0,2.1-2.1V47.32H22.26V72.24A2.1,2.1,0,0,0,24.36,74.34Z"/><rect class="cls-1" x="25.65" y="74.34" width="1" height="15.73"/><path class="cls-1" d="M48.38,74.34h3.57a2.1,2.1,0,0,0,2.1-2.1V47.32H46.28V72.24A2.1,2.1,0,0,0,48.38,74.34Z"/><rect class="cls-1" x="49.66" y="74.34" width="1" height="15.73"/><path class="cls-1" d="M64.39,74.34H68a2.1,2.1,0,0,0,2.1-2.1V47.32H62.29V72.24A2.1,2.1,0,0,0,64.39,74.34Z"/><rect class="cls-1" x="65.67" y="74.34" width="1" height="15.73"/><path class="cls-1" d="M79.4,74.34H83a2.1,2.1,0,0,0,2.1-2.1V47.32H77.3V72.24A2.1,2.1,0,0,0,79.4,74.34Z"/><rect class="cls-1" x="80.68" y="74.34" width="1" height="15.73"/><rect class="cls-1" x="37.51" y="47.32" width="1" height="42.75"/><path class="cls-1" d="M102.66,74.34h3.57a2.1,2.1,0,0,0,2.1-2.1V47.32h-7.77V72.24A2.1,2.1,0,0,0,102.66,74.34Z"/><rect class="cls-1" x="103.95" y="74.34" width="1" height="15.73"/><path class="cls-1" d="M118.67,74.34h3.57a2.1,2.1,0,0,0,2.1-2.1V47.32h-7.77V72.24A2.1,2.1,0,0,0,118.67,74.34Z"/><rect class="cls-1" x="119.96" y="74.34" width="1" height="15.73"/><rect class="cls-1" x="91.8" y="47.32" width="1" height="42.75"/><path class="cls-1" d="M123.44,45.45H0V87a5.57,5.57,0,0,0,5.57,5.57h119A5.57,5.57,0,0,0,130.14,87V45.45h-6.7ZM127.64,87a3.07,3.07,0,0,1-3.07,3.07H5.57A3.07,3.07,0,0,1,2.5,87V47.32h35V46.7h1v.63H91.8V46.7h1v.63h34.84Z"/><rect class="cls-1" x="37.51" y="46.7" width="1" height="0.63"/><rect class="cls-1" x="91.8" y="46.7" width="1" height="0.63"/><rect class="cls-1" x="6.69" y="32.26" width="5.2" height="12.19"/><polygon class="cls-1" points="18.09 20.48 12.89 20.48 12.89 31.27 12.89 44.45 18.09 44.45 18.09 20.48"/><polygon class="cls-1" points="24.29 23.12 24.29 9.96 19.09 9.96 19.09 19.48 19.09 44.45 24.29 44.45 24.29 23.12"/><polygon class="cls-1" points="30.48 27.21 30.48 24.12 25.29 24.12 25.29 44.45 30.48 44.45 30.48 27.21"/><polygon class="cls-1" points="33.02 40.03 31.48 40.03 31.48 44.45 36.68 44.45 36.68 28.21 31.48 28.21 31.48 39.12 33.02 39.12 33.02 40.03"/><rect class="cls-1" x="31.48" y="39.12" width="1.54" height="0.92"/><polygon class="cls-1" points="42.88 4.81 37.68 4.81 37.68 27.21 37.68 44.45 42.88 44.45 42.88 4.81"/><polygon class="cls-1" points="5.7 19.08 0.5 19.08 0.5 44.45 5.7 44.45 5.7 31.27 5.7 19.08"/><polygon class="cls-1" points="55.27 22.72 55.27 4.15 50.08 4.15 50.08 18.08 50.08 44.45 55.27 44.45 55.27 22.72"/><rect class="cls-1" x="56.27" y="23.72" width="5.2" height="20.73"/><path class="cls-1" d="M67.67,41.62h-.74V41h.74V10h-5.2V44.45h5.2Zm-1.89-1.38h-1.6v-.63h1.6Z"/><rect class="cls-1" x="64.17" y="39.62" width="1.6" height="0.63"/><rect class="cls-1" x="66.93" y="40.99" width="0.74" height="0.63"/><rect class="cls-1" x="68.67" y="11.82" width="5.2" height="32.63"/><polygon class="cls-1" points="80.06 3.81 80.06 0 74.86 0 74.86 10.82 74.86 44.45 80.06 44.45 80.06 3.81"/><polygon class="cls-1" points="86.26 12.46 86.26 4.81 81.06 4.81 81.06 44.45 86.26 44.45 86.26 12.46"/><polygon class="cls-1" points="92.45 22.72 92.45 13.46 87.26 13.46 87.26 44.45 92.45 44.45 92.45 22.72"/><rect class="cls-1" x="93.46" y="23.72" width="5.2" height="20.73"/><polygon class="cls-1" points="104.85 20.14 104.85 9.96 99.65 9.96 99.65 22.72 99.65 44.45 104.85 44.45 104.85 20.14"/><polygon class="cls-1" points="111.05 24.13 111.05 21.14 105.85 21.14 105.85 44.45 111.05 44.45 111.05 24.13"/><rect class="cls-1" x="112.05" y="25.13" width="5.2" height="19.32"/><polygon class="cls-1" points="123.44 20.14 123.44 13.97 118.24 13.97 118.24 24.13 118.24 44.45 123.44 44.45 123.44 20.14"/><rect class="cls-1" x="124.44" y="21.14" width="5.2" height="23.31"/><rect class="cls-1" x="43.88" y="19.08" width="5.2" height="25.37"/></g></g></svg>