<svg xmlns="http://www.w3.org/2000/svg" viewBox="0 0 608 93"><defs><style>.cls-1{fill:#50555b;}.cls-2{fill:none;}</style></defs><title>Asset 1</title><g id="Layer_2" data-name="Layer 2"><g id="Layer_2-2" data-name="Layer 2"><path class="cls-1" d="M187,61V41.06L179.17,58h-4.34L167,41.06V61h-6V31h7.45L177,49.34,185.59,31H193V61Z"/><path class="cls-1" d="M226,49.22c0,7.83-5.17,12.7-13.41,12.7S199,57.05,199,49.22V32h7V49.22c0,4.27,2.72,6.86,6.58,6.86S219,53.5,219,49.22V32h7Z"/><path class="cls-1" d="M254.21,34.56l-2.58,5.54c-3.13-1.86-6.86-3-9.22-3s-3.77.8-3.77,2.41c0,5.46,15.78,2.41,15.74,13.08,0,5.8-5,8.93-11.59,8.93a20.8,20.8,0,0,1-13.08-4.7l2.67-5.46c3,2.71,7.36,4.44,10.5,4.44,2.75,0,4.4-1,4.4-2.84,0-5.59-15.78-2.33-15.78-12.82,0-5.37,4.61-8.76,11.47-8.76A21.17,21.17,0,0,1,254.21,34.56Z"/><path class="cls-1" d="M259,61V31h7V61Z"/><path class="cls-1" d="M283.47,48.79,279,53.59V61h-7V31h7V44.63L291.89,31H300L288.35,43.51,300.8,61h-8.42Z"/><path class="cls-1" d="M314.47,48.79,310,53.59V61h-7V31h7V44.63L322.89,31H331L319.35,43.51,331.8,61h-8.42Z"/><path class="cls-1" d="M348.8,31c6.6,0,10.71,2.87,10.71,7.5a6.58,6.58,0,0,1-5.18,6.6,7.36,7.36,0,0,1,6.26,7.59c0,5.14-4.33,8.31-11.31,8.31H335V31ZM341,43h6.12c2.31,0,3.77-1.14,3.77-3.06S349.43,37,347.12,37H341Zm0,13h6.54c3.14,0,5-1.3,5-3.56s-1.89-3.44-5-3.44H341Z"/><path class="cls-1" d="M378.44,53H372v8h-7V31h13.47c8.11,0,12.71,3.77,12.71,10.41,0,4.63-2,8-5.8,9.69L392,61h-9.1Zm-1.28-6c3.67,0,5.78-1.69,5.78-5.06S380.83,37,377.16,37H371V47Z"/><path class="cls-1" d="M410,61h-7V51.49L391.53,31h7l7.93,13.46L414.25,31h7L410,51.31Z"/><path class="cls-1" d="M448,46V57.38a23.24,23.24,0,0,1-12.44,3.85c-9.29,0-16.34-6.52-16.34-15.11s7.18-15,16.73-15a19.73,19.73,0,0,1,12.31,4.32l-3.9,4.78A13.08,13.08,0,0,0,436,36.9a9.25,9.25,0,1,0,0,18.49,14.33,14.33,0,0,0,6-1.61V46Z"/><path class="cls-1" d="M480,46V57.38a23.24,23.24,0,0,1-12.44,3.85c-9.29,0-16.34-6.52-16.34-15.11s7.18-15,16.73-15a19.73,19.73,0,0,1,12.31,4.32l-3.9,4.78A13.08,13.08,0,0,0,468,36.9a9.25,9.25,0,1,0,0,18.49,14.33,14.33,0,0,0,6-1.61V46Z"/><path class="cls-1" d="M492,37v6h14v6H492v7h16v5H486V31h22v6Z"/><path class="cls-1" d="M527.44,53H521v8h-7V31h13.47c8.11,0,12.71,3.77,12.71,10.41,0,4.63-2,8-5.8,9.69L541,61h-9.1Zm-1.28-6c3.67,0,5.78-1.69,5.78-5.06S529.83,37,526.16,37H520V47Z"/><path class="cls-1" d="M544,61V31h7V61Z"/><path class="cls-1" d="M565,37v6h14v6H565v7h16v5H558V31h22v6Z"/><path class="cls-1" d="M599,37V61h-7V37h-9V31h25v6Z"/><path class="cls-2" d="M47.84,74c-1.16.51-1.84-1.59-1.84-1.59V47H38V90H49V74Z"/><path class="cls-2" d="M30,47V72.41s-1.45,2.1-2.61,1.59H26V90H37V47Z"/><path class="cls-2" d="M24.1,74A2.1,2.1,0,0,1,22,71.9V47H14V71.9A2.1,2.1,0,0,1,11.9,74H10V90H25V74Z"/><path class="cls-2" d="M84,47V72.41s-.41,2.1-1.57,1.59H81V90H91V47Z"/><path class="cls-2" d="M102.12,74c-1.16.51-2.12-1.59-2.12-1.59V47H92V90h11V74Z"/><path class="cls-2" d="M64.1,74A2.1,2.1,0,0,1,62,71.9V47H54V71.9A2.1,2.1,0,0,1,51.9,74H50V90H65V74Z"/><path class="cls-2" d="M124,71.9a2.1,2.1,0,0,1-2.1,2.1H120V90h3.93A3.07,3.07,0,0,0,127,86.93V47h-3Z"/><path class="cls-2" d="M79.1,74A2.1,2.1,0,0,1,77,71.9V47H70V71.9A2.1,2.1,0,0,1,67.9,74H66V90H80V74Z"/><path class="cls-2" d="M7.81,74C6.66,74.51,6,72.41,6,72.41V47H2V86.93A3.07,3.07,0,0,0,5.07,90H9V74Z"/><path class="cls-2" d="M118.1,74a2.1,2.1,0,0,1-2.1-2.1V47h-8V71.9a2.1,2.1,0,0,1-2.1,2.1H104V90h15V74Z"/><path class="cls-1" d="M6,71.9A2.1,2.1,0,0,0,8.1,74h3.8A2.1,2.1,0,0,0,14,71.9V47H6Z"/><rect class="cls-1" x="9" y="74" width="1" height="16"/><path class="cls-1" d="M22,71.9A2.1,2.1,0,0,0,24.1,74h3.8A2.1,2.1,0,0,0,30,71.9V47H22Z"/><rect class="cls-1" x="25" y="74" width="1" height="16"/><path class="cls-1" d="M46,71.9A2.1,2.1,0,0,0,48.1,74h3.8A2.1,2.1,0,0,0,54,71.9V47H46Z"/><rect class="cls-1" x="49" y="74" width="1" height="16"/><path class="cls-1" d="M62,71.9A2.1,2.1,0,0,0,64.1,74h3.8A2.1,2.1,0,0,0,70,71.9V47H62Z"/><rect class="cls-1" x="65" y="74" width="1" height="16"/><path class="cls-1" d="M77,71.9A2.1,2.1,0,0,0,79.1,74h3.8A2.1,2.1,0,0,0,85,71.9V47H77Z"/><rect class="cls-1" x="80" y="74" width="1" height="16"/><rect class="cls-1" x="37" y="47" width="1" height="43"/><path class="cls-1" d="M100,71.9a2.1,2.1,0,0,0,2.1,2.1h3.8a2.1,2.1,0,0,0,2.1-2.1V47h-8Z"/><rect class="cls-1" x="103" y="74" width="1" height="16"/><path class="cls-1" d="M116,71.9a2.1,2.1,0,0,0,2.1,2.1h3.8a2.1,2.1,0,0,0,2.1-2.1V47h-8Z"/><rect class="cls-1" x="119" y="74" width="1" height="16"/><rect class="cls-1" x="91" y="47" width="1" height="43"/><path class="cls-1" d="M123.31,46H0V87.43A5.57,5.57,0,0,0,5.57,93H124.43A5.57,5.57,0,0,0,130,87.43V46h-6.69ZM127,86.93A3.07,3.07,0,0,1,123.93,90H5.07A3.07,3.07,0,0,1,2,86.93V47H37v1h1V47H91v1h1V47h35Z"/><rect class="cls-1" x="37" y="47" width="1" height="1"/><rect class="cls-1" x="91" y="47" width="1" height="1"/><rect class="cls-1" x="6" y="33" width="5" height="12"/><polygon class="cls-1" points="17 21 12 21 12 31.8 12 45 17 45 17 21"/><polygon class="cls-1" points="24 22.97 24 10 19 10 19 19.39 19 44 24 44 24 22.97"/><polygon class="cls-1" points="30 27.04 30 24 25 24 25 44 30 44 30 27.04"/><polygon class="cls-1" points="33 40 31 40 31 44 36 44 36 28 31 28 31 39 33 39 33 40"/><rect class="cls-1" x="31" y="39" width="2" height="1"/><polygon class="cls-1" points="42 5 37 5 37 27.6 37 45 42 45 42 5"/><polygon class="cls-1" points="5 19 0 19 0 44 5 44 5 31.01 5 19"/><polygon class="cls-1" points="55 22.43 55 4 50 4 50 17.83 50 44 55 44 55 22.43"/><rect class="cls-1" x="56" y="24" width="5" height="21"/><path class="cls-1" d="M67,42H66V41h1V10H62V44h5Zm-2-2H63v1h2Z"/><rect class="cls-1" x="63" y="40" width="2" height="1"/><rect class="cls-1" x="66" y="41" width="1" height="1"/><rect class="cls-1" x="68" y="12" width="5" height="33"/><polygon class="cls-1" points="79 3.77 79 0 74 0 74 10.71 74 44 79 44 79 3.77"/><polygon class="cls-1" points="86 12.71 86 5 81 5 81 45 86 45 86 12.71"/><polygon class="cls-1" points="92 23.27 92 14 87 14 87 45 92 45 92 23.27"/><rect class="cls-1" x="93" y="24" width="5" height="21"/><polygon class="cls-1" points="104 20.04 104 10 99 10 99 22.58 99 44 104 44 104 20.04"/><polygon class="cls-1" points="110 23.95 110 21 105 21 105 44 110 44 110 23.95"/><rect class="cls-1" x="112" y="25" width="5" height="19"/><polygon class="cls-1" points="123 20.07 123 14 118 14 118 24 118 44 123 44 123 20.07"/><rect class="cls-1" x="124" y="21" width="5" height="23"/><rect class="cls-1" x="43" y="19" width="5" height="25"/></g></g></svg>