<svg xmlns="http://www.w3.org/2000/svg" viewBox="0 0 441.21 107.74"><defs><style>.cls-1{fill:#253b80;}.cls-2{fill:#179bd7;}.cls-3{fill:#222d65;}</style></defs><title>Asset 1</title><g id="Layer_2" data-name="Layer 2"><g id="Layer_1-2" data-name="Layer 1"><g id="_Group_" data-name="&lt;Group&gt;"><g id="_Group_2" data-name="&lt;Group&gt;"><g id="_Group_3" data-name="&lt;Group&gt;"><g id="_Group_4" data-name="&lt;Group&gt;"><g id="_Group_5" data-name="&lt;Group&gt;"><path id="_Compound_Path_" data-name="&lt;Compound Path&gt;" class="cls-1" d="M167.79,47c-1.34,8.76-8,8.76-14.5,8.76h-3.68l2.58-16.36a2,2,0,0,1,2-1.72h1.69c4.41,0,8.57,0,10.72,2.51C167.89,41.66,168.28,43.88,167.79,47ZM165,24.09H140.56A3.39,3.39,0,0,0,137.21,27l-9.87,62.61a2,2,0,0,0,2,2.35H141A3.39,3.39,0,0,0,144.36,89L147,72.16a3.39,3.39,0,0,1,3.35-2.87h7.73c16.08,0,25.37-7.78,27.79-23.21,1.09-6.75,0-12-3.11-15.76C179.3,26.25,173.15,24.09,165,24.09Z"/><path id="_Compound_Path_2" data-name="&lt;Compound Path&gt;" class="cls-1" d="M221.66,69.43A13,13,0,0,1,208.47,80.6c-3.4,0-6.11-1.09-7.85-3.15a9.94,9.94,0,0,1-1.84-8.21A13.09,13.09,0,0,1,211.89,58a9.86,9.86,0,0,1,7.8,3.18A10.12,10.12,0,0,1,221.66,69.43ZM238,46.68H226.27a2,2,0,0,0-2,1.72l-.52,3.27-.82-1.19c-2.53-3.67-8.18-4.9-13.81-4.9-12.92,0-24,9.79-26.1,23.51-1.12,6.85.47,13.39,4.36,18C190.93,91.25,196,93,202.09,93a22.37,22.37,0,0,0,16.18-6.69l-.52,3.25a2,2,0,0,0,2,2.36h10.53A3.39,3.39,0,0,0,233.64,89L240,49A2,2,0,0,0,238,46.68Z"/><path id="_Path_" data-name="&lt;Path&gt;" class="cls-1" d="M300.23,46.68H288.48a3.4,3.4,0,0,0-2.81,1.49L269.47,72,262.6,49.1a3.4,3.4,0,0,0-3.26-2.42H247.8a2,2,0,0,0-1.93,2.69l12.94,38-12.17,17.18a2,2,0,0,0,1.66,3.21H260a3.39,3.39,0,0,0,2.79-1.46L301.9,49.87A2,2,0,0,0,300.23,46.68Z"/><path id="_Compound_Path_3" data-name="&lt;Compound Path&gt;" class="cls-2" d="M341.95,47c-1.33,8.76-8,8.76-14.5,8.76h-3.68l2.59-16.36a2,2,0,0,1,2-1.72H330c4.41,0,8.57,0,10.72,2.51C342,41.66,342.44,43.88,341.95,47Zm-2.82-22.87H314.71A3.39,3.39,0,0,0,311.36,27l-9.87,62.61a2,2,0,0,0,2,2.35H316a2.37,2.37,0,0,0,2.34-2l2.8-17.75a3.39,3.39,0,0,1,3.35-2.87h7.73c16.09,0,25.37-7.78,27.79-23.21,1.1-6.75,0-12-3.12-15.76C353.45,26.25,347.3,24.09,339.13,24.09Z"/><path id="_Compound_Path_4" data-name="&lt;Compound Path&gt;" class="cls-2" d="M395.81,69.43A13,13,0,0,1,382.62,80.6c-3.39,0-6.11-1.09-7.85-3.15a10,10,0,0,1-1.83-8.21A13.09,13.09,0,0,1,386,58a9.86,9.86,0,0,1,7.8,3.18A10.07,10.07,0,0,1,395.81,69.43Zm16.3-22.76H400.43a2,2,0,0,0-2,1.72l-.52,3.27-.82-1.19c-2.53-3.67-8.17-4.9-13.81-4.9-12.92,0-24,9.79-26.1,23.51-1.11,6.85.47,13.39,4.35,18,3.57,4.2,8.66,5.95,14.73,5.95a22.37,22.37,0,0,0,16.18-6.69l-.52,3.25a2,2,0,0,0,2,2.36h10.53A3.39,3.39,0,0,0,407.8,89l6.32-40A2,2,0,0,0,412.11,46.68Z"/><path id="_Path_2" data-name="&lt;Path&gt;" class="cls-2" d="M425.89,25.81l-10,63.75a2,2,0,0,0,2,2.35H428A3.39,3.39,0,0,0,431.31,89l9.88-62.61a2,2,0,0,0-2-2.35H427.9A2,2,0,0,0,425.89,25.81Z"/><path id="_Path_3" data-name="&lt;Path&gt;" class="cls-1" d="M25.94,104.08l1.87-11.86-4.16-.1H3.79L17.59,4.61A1.16,1.16,0,0,1,18,3.93a1.13,1.13,0,0,1,.74-.27H52.2C63.32,3.66,71,6,75,10.54a15.69,15.69,0,0,1,3.65,6.84,24.71,24.71,0,0,1,0,9.44l0,.27v2.41l1.88,1.06a13.18,13.18,0,0,1,3.8,2.9,13.5,13.5,0,0,1,3.08,6.92,29.27,29.27,0,0,1-.44,10,35.35,35.35,0,0,1-4.11,11.36,23.37,23.37,0,0,1-6.52,7.14,26.43,26.43,0,0,1-8.78,4,43.78,43.78,0,0,1-11,1.27H54a7.84,7.84,0,0,0-7.75,6.62L46,81.84l-3.3,20.9-.15.77a.66.66,0,0,1-.21.45.55.55,0,0,1-.34.12Z"/><path id="_Path_4" data-name="&lt;Path&gt;" class="cls-2" d="M82.28,27.37q-.15,1-.34,2C77.52,52,62.42,59.84,43.12,59.84H33.29a4.77,4.77,0,0,0-4.72,4l-5,31.9-1.42,9a2.51,2.51,0,0,0,2.48,2.91H42a4.19,4.19,0,0,0,4.14-3.53l.17-.89,3.28-20.82.21-1.14A4.19,4.19,0,0,1,54,77.81h2.61c16.88,0,30.1-6.85,34-26.69,1.61-8.29.78-15.21-3.49-20.07A16.66,16.66,0,0,0,82.28,27.37Z"/><path id="_Path_5" data-name="&lt;Path&gt;" class="cls-3" d="M77.66,25.53q-1-.29-2.08-.54t-2.21-.42a54.57,54.57,0,0,0-8.66-.63H38.46a4.18,4.18,0,0,0-4.14,3.54L28.74,62.85l-.16,1a4.77,4.77,0,0,1,4.72-4h9.82c19.3,0,34.4-7.84,38.82-30.51.13-.67.24-1.32.34-2a23.52,23.52,0,0,0-3.63-1.53Z"/><path id="_Path_6" data-name="&lt;Path&gt;" class="cls-1" d="M34.32,27.49a4.19,4.19,0,0,1,4.14-3.54H64.71a54.57,54.57,0,0,1,8.66.63q1.14.18,2.21.42t2.08.54l1,.31a23.86,23.86,0,0,1,3.63,1.53c1.31-8.38,0-14.08-4.54-19.25C72.75,2.43,63.74,0,52.2,0H18.71A4.79,4.79,0,0,0,14,4L0,92.46a2.88,2.88,0,0,0,2.84,3.33H23.55l5.19-32.93Z"/></g></g></g></g></g></g></g></svg>