<svg width="15" height="15" viewBox="0 0 15 15" fill="none" xmlns="http://www.w3.org/2000/svg">
<path fill-rule="evenodd" clip-rule="evenodd" d="M12.9545 0.681818C13.3311 0.30526 13.9416 0.30526 14.3182 0.681818C14.6947 1.05838 14.6947 1.6689 14.3182 2.04545L2.04545 14.3182C1.6689 14.6947 1.05838 14.6947 0.681818 14.3182C0.30526 13.9416 0.305261 13.3311 0.681818 12.9545L12.9545 0.681818Z" fill="#2A394E"/>
<path fill-rule="evenodd" clip-rule="evenodd" d="M0.681818 2.04545C0.30526 1.6689 0.30526 1.05838 0.681818 0.681818C1.05838 0.30526 1.6689 0.30526 2.04545 0.681818L14.3182 12.9545C14.6947 13.3311 14.6947 13.9416 14.3182 14.3182C13.9416 14.6947 13.3311 14.6947 12.9545 14.3182L0.681818 2.04545Z" fill="#2A394E"/>
</svg>
