<svg width="18" height="17" viewBox="0 0 18 17" fill="none" xmlns="http://www.w3.org/2000/svg">
<path fill-rule="evenodd" clip-rule="evenodd" d="M1.58203 0H16.418C17.2903 0 18 0.714974 18 1.59375V12.2188C18 13.0975 17.2903 13.8125 16.418 13.8125H11.8411L12.5442 15.9375H14.2734C14.5647 15.9375 14.8008 16.1753 14.8008 16.4688C14.8008 16.7622 14.5647 17 14.2734 17H3.72656C3.43529 17 3.19922 16.7622 3.19922 16.4688C3.19922 16.1753 3.43529 15.9375 3.72656 15.9375H5.45581L6.15894 13.8125H1.58203C0.709717 13.8125 0 13.0975 0 12.2188V1.59375C0 0.714974 0.709717 0 1.58203 0ZM7.27075 13.8125L6.56763 15.9375H11.4324L10.7292 13.8125H7.27075ZM16.9453 12.2188C16.9453 12.5116 16.7087 12.75 16.418 12.75H1.58203C1.29131 12.75 1.05469 12.5116 1.05469 12.2188V11.6875H16.9453V12.2188ZM5.2711 7.08859L5.75079 7.5717C5.92081 7.74311 5.95418 8.00859 5.83209 8.21722C5.65741 8.51591 5.52571 8.83466 5.44098 9.16448C5.38069 9.39884 5.17072 9.5625 4.93039 9.5625H4.25391V10.625H6.41656C6.38141 10.451 6.36328 10.2729 6.36328 10.0938C6.36328 8.62908 7.5461 7.4375 9 7.4375C10.4539 7.4375 11.6367 8.62908 11.6367 10.0938C11.6367 10.2729 11.6186 10.451 11.5834 10.625H13.7461V9.5625H13.0696C12.8293 9.5625 12.6193 9.39884 12.5592 9.16448C12.4743 8.83466 12.3427 8.51591 12.1679 8.21722C12.0457 8.00859 12.0792 7.74311 12.2492 7.57183L12.7289 7.08859L11.9831 6.33723L11.5034 6.82048C11.3334 6.99175 11.0698 7.0255 10.8626 6.90251C10.5662 6.7264 10.2498 6.59373 9.92244 6.50823C9.6898 6.44763 9.52734 6.2361 9.52734 5.99399V5.3125H8.47266V5.99399C8.47266 6.2361 8.3102 6.44763 8.07756 6.50823C7.75003 6.59373 7.43362 6.7264 7.13727 6.90238C6.93004 7.0255 6.6665 6.99175 6.49649 6.82048L6.0168 6.33723L5.2711 7.08859ZM10.582 10.0938C10.582 10.2757 10.5507 10.4554 10.4914 10.625H7.50861C7.44928 10.4554 7.41797 10.2757 7.41797 10.0938C7.41797 9.21497 8.12769 8.5 9 8.5C9.87231 8.5 10.582 9.21497 10.582 10.0938ZM14.8008 10.625H16.9453V1.59375C16.9453 1.30087 16.7087 1.0625 16.418 1.0625H1.58203C1.29131 1.0625 1.05469 1.30087 1.05469 1.59375V10.625H3.19922V9.03125C3.19922 8.73796 3.43529 8.5 3.72656 8.5H4.54134C4.59599 8.34561 4.65862 8.19384 4.7292 8.04526L4.15256 7.4642C3.94656 7.25668 3.94656 6.92036 4.15256 6.71284L5.64395 5.21026C5.74297 5.11065 5.877 5.05476 6.01694 5.05476C6.15674 5.05476 6.29091 5.11065 6.38979 5.21026L6.96643 5.79132C7.11406 5.72021 7.26471 5.65698 7.41797 5.60206V4.78125C7.41797 4.48782 7.65404 4.25 7.94531 4.25H10.0547C10.346 4.25 10.582 4.48782 10.582 4.78125V5.60206C10.7353 5.65698 10.8859 5.72021 11.0336 5.79132L11.6102 5.21026C11.7091 5.11065 11.8433 5.05476 11.9831 5.05476C12.1229 5.05476 12.257 5.11065 12.3559 5.21026L13.8474 6.71284C14.0534 6.92036 14.0534 7.25668 13.8476 7.4642L13.2708 8.04512C13.3414 8.19384 13.4041 8.34561 13.4588 8.5H14.2734C14.5647 8.5 14.8008 8.73782 14.8008 9.03125V10.625Z" fill="black"/>
</svg>
