<svg width="15" height="22" viewBox="0 0 15 22" fill="none" xmlns="http://www.w3.org/2000/svg">
<path d="M7.128 17.108C5.496 17.108 4.224 16.64 3.312 15.704C2.4 14.768 1.944 13.406 1.944 11.618V4.4H3.276V11.564C3.276 13.028 3.606 14.12 4.266 14.84C4.926 15.56 5.88 15.92 7.128 15.92C8.388 15.92 9.348 15.56 10.008 14.84C10.668 14.12 10.998 13.028 10.998 11.564V4.4H12.294V11.618C12.294 13.406 11.838 14.768 10.926 15.704C10.026 16.64 8.76 17.108 7.128 17.108Z" fill="#979797"/>
<rect x="1.95845" y="18.2567" width="10.5" height="0.5" stroke="#979797" stroke-width="0.5"/>
</svg>
